<svg width="44" height="31" viewBox="0 0 44 31" fill="none" xmlns="http://www.w3.org/2000/svg">
<path d="M17.2381 9.61905L25.8095 15.3333L34.381 9.61905M5.80952 18.1905H9.61905M2 12.4762H9.61905" stroke="#FFFAFA" stroke-width="3" stroke-linecap="round" stroke-linejoin="round"/>
<path d="M9.61902 6.7619V5.80952C9.61902 4.79918 10.0204 3.83021 10.7348 3.11578C11.4492 2.40136 12.4182 2 13.4285 2H38.1904C39.2008 2 40.1698 2.40136 40.8842 3.11578C41.5986 3.83021 42 4.79918 42 5.80952V24.8571C42 25.8675 41.5986 26.8365 40.8842 27.5509C40.1698 28.2653 39.2008 28.6667 38.1904 28.6667H13.4285C12.4182 28.6667 11.4492 28.2653 10.7348 27.5509C10.0204 26.8365 9.61902 25.8675 9.61902 24.8571V23.9048" stroke="#FFFAFA" stroke-width="3" stroke-linecap="round"/>
</svg>
